<?xml version="1.0" encoding="UTF-8"?>
<svg xmlns="http://www.w3.org/2000/svg" xmlns:xlink="http://www.w3.org/1999/xlink" width="20pt" height="20pt" viewBox="0 0 20 20" version="1.1">
<g id="surface1">
<path style=" stroke:none;fill-rule:nonzero;fill:#000000;fill-opacity:1;" d="M 15.789063 2.632813 L 3.949219 2.632813 C 3.21875 2.632813 2.632813 3.21875 2.632813 3.949219 L 2.632813 15.789063 C 2.632813 16.515625 3.21875 17.105469 3.949219 17.105469 L 10.527344 17.105469 L 10.527344 11.183594 L 8.550781 11.183594 L 8.550781 9.210938 L 10.527344 9.210938 L 10.527344 8.152344 C 10.527344 6.144531 11.503906 5.261719 13.171875 5.261719 C 13.96875 5.261719 14.394531 5.324219 14.59375 5.351563 L 14.59375 7.238281 L 13.457031 7.238281 C 12.746094 7.238281 12.5 7.609375 12.5 8.367188 L 12.5 9.210938 L 14.574219 9.210938 L 14.292969 11.183594 L 12.5 11.183594 L 12.5 17.105469 L 15.789063 17.105469 C 16.515625 17.105469 17.105469 16.515625 17.105469 15.789063 L 17.105469 3.949219 C 17.105469 3.21875 16.515625 2.632813 15.789063 2.632813 Z "/>
</g>
</svg>
