<?xml version="1.0" encoding="UTF-8"?>
<svg xmlns="http://www.w3.org/2000/svg" xmlns:xlink="http://www.w3.org/1999/xlink" width="20pt" height="20pt" viewBox="0 0 20 20" version="1.1">
<g id="surface1">
<path style=" stroke:none;fill-rule:nonzero;fill:#000000;fill-opacity:1;" d="M 9.867188 1.972656 C 5.515625 1.972656 1.972656 5.515625 1.972656 9.867188 C 1.972656 14.222656 5.515625 17.761719 9.867188 17.761719 C 10.550781 17.761719 11.210938 17.667969 11.84375 17.503906 L 11.84375 14.050781 C 11.324219 15.53125 10.574219 16.449219 9.867188 16.449219 C 9.027344 16.449219 8.121094 15.15625 7.621094 13.15625 L 11.84375 13.15625 L 11.84375 11.84375 L 7.371094 11.84375 C 7.28125 11.226563 7.238281 10.5625 7.238281 9.867188 C 7.238281 9.167969 7.296875 8.515625 7.382813 7.894531 L 12.355469 7.894531 C 12.441406 8.515625 12.5 9.167969 12.5 9.867188 C 12.5 10.046875 12.488281 10.21875 12.480469 10.394531 C 12.835938 10.070313 13.300781 9.867188 13.816406 9.867188 C 13.816406 9.179688 13.773438 8.523438 13.695313 7.894531 L 16.140625 7.894531 C 16.339844 8.519531 16.449219 9.179688 16.449219 9.867188 C 16.449219 10.324219 16.394531 10.769531 16.304688 11.203125 L 17.457031 12.023438 C 17.652344 11.335938 17.761719 10.617188 17.761719 9.867188 C 17.761719 5.515625 14.222656 1.972656 9.867188 1.972656 Z M 9.867188 3.289063 C 10.707031 3.289063 11.601563 4.585938 12.101563 6.578125 L 7.636719 6.578125 C 8.136719 4.585938 9.03125 3.289063 9.867188 3.289063 Z M 7.277344 3.824219 C 6.839844 4.5625 6.496094 5.503906 6.261719 6.578125 L 4.171875 6.578125 C 4.882813 5.359375 5.972656 4.382813 7.277344 3.824219 Z M 12.457031 3.824219 C 13.765625 4.382813 14.855469 5.359375 15.5625 6.578125 L 13.476563 6.578125 C 13.242188 5.503906 12.894531 4.5625 12.457031 3.824219 Z M 3.59375 7.894531 L 6.039063 7.894531 C 5.964844 8.523438 5.921875 9.179688 5.921875 9.867188 C 5.921875 10.558594 5.964844 11.214844 6.039063 11.84375 L 3.59375 11.84375 C 3.398438 11.21875 3.289063 10.558594 3.289063 9.867188 C 3.289063 9.179688 3.398438 8.519531 3.59375 7.894531 Z M 13.824219 11.175781 C 13.636719 11.171875 13.457031 11.25 13.328125 11.390625 C 13.199219 11.527344 13.136719 11.714844 13.15625 11.902344 L 13.15625 17.761719 C 13.15625 18.125 13.453125 18.421875 13.816406 18.421875 C 14.007813 18.421875 14.171875 18.339844 14.292969 18.210938 L 14.296875 18.214844 L 15.53125 16.746094 L 16.847656 19.375 C 17.007813 19.699219 17.402344 19.828125 17.730469 19.667969 C 18.054688 19.503906 18.183594 19.109375 18.023438 18.785156 L 16.683594 16.109375 L 18.605469 15.765625 L 18.605469 15.75 C 18.875 15.675781 19.078125 15.429688 19.078125 15.132813 C 19.078125 14.902344 18.953125 14.710938 18.773438 14.59375 L 18.777344 14.578125 L 14.277344 11.371094 C 14.15625 11.25 13.996094 11.179688 13.824219 11.175781 Z M 4.179688 13.15625 L 6.257813 13.15625 C 6.492188 14.234375 6.839844 15.171875 7.277344 15.914063 C 5.972656 15.351563 4.886719 14.378906 4.179688 13.15625 Z "/>
</g>
</svg>
