<?xml version="1.0" encoding="UTF-8"?>
<svg xmlns="http://www.w3.org/2000/svg" xmlns:xlink="http://www.w3.org/1999/xlink" width="20pt" height="20pt" viewBox="0 0 20 20" version="1.1">
<g id="surface1">
<path style=" stroke:none;fill-rule:nonzero;fill:#000000;fill-opacity:1;" d="M 15.789063 2.632813 L 3.949219 2.632813 C 3.21875 2.632813 2.632813 3.21875 2.632813 3.949219 L 2.632813 15.789063 C 2.632813 16.515625 3.21875 17.105469 3.949219 17.105469 L 15.789063 17.105469 C 16.515625 17.105469 17.105469 16.515625 17.105469 15.789063 L 17.105469 3.949219 C 17.105469 3.21875 16.515625 2.632813 15.789063 2.632813 Z M 7.207031 14.472656 L 5.265625 14.472656 L 5.265625 8.230469 L 7.207031 8.230469 Z M 6.214844 7.335938 C 5.589844 7.335938 5.085938 6.828125 5.085938 6.203125 C 5.085938 5.578125 5.59375 5.074219 6.214844 5.074219 C 6.839844 5.074219 7.347656 5.582031 7.347656 6.203125 C 7.347656 6.828125 6.839844 7.335938 6.214844 7.335938 Z M 14.476563 14.472656 L 12.535156 14.472656 L 12.535156 11.4375 C 12.535156 10.710938 12.523438 9.78125 11.527344 9.78125 C 10.519531 9.78125 10.363281 10.570313 10.363281 11.382813 L 10.363281 14.472656 L 8.425781 14.472656 L 8.425781 8.230469 L 10.285156 8.230469 L 10.285156 9.082031 L 10.3125 9.082031 C 10.570313 8.589844 11.203125 8.074219 12.148438 8.074219 C 14.113281 8.074219 14.476563 9.367188 14.476563 11.046875 Z "/>
</g>
</svg>
