<?xml version="1.0" encoding="UTF-8"?>
<svg xmlns="http://www.w3.org/2000/svg" xmlns:xlink="http://www.w3.org/1999/xlink" width="480pt" height="480pt" viewBox="0 0 480 480" version="1.1">
<g id="surface1">
<path style=" stroke:none;fill-rule:nonzero;fill:#FFFFFF;fill-opacity:1;" d="M 111.25 0 C 82.734375 0 54.140625 10.859375 32.5 32.5 C -10.78125 75.78125 -10.78125 146.71875 32.5 190 L 105.625 263.125 C 113.359375 271.09375 126.09375 271.171875 134.0625 263.4375 C 142.03125 255.703125 142.109375 242.96875 134.375 235 L 60.625 161.25 C 32.65625 133.28125 32.65625 88.59375 60.625 60.625 C 88.59375 32.65625 133.28125 32.65625 161.25 60.625 L 259.375 158.75 C 287.34375 186.71875 287.34375 231.40625 259.375 259.375 C 256.09375 262.65625 252.421875 265 248.75 267.5 C 239.609375 273.75 237.1875 286.171875 243.4375 295.3125 C 249.6875 304.453125 262.109375 306.875 271.25 300.625 C 276.953125 296.71875 282.5 292.5 287.5 287.5 C 330.78125 244.21875 330.78125 173.28125 287.5 130 L 190 32.5 C 168.359375 10.859375 139.765625 0 111.25 0 Z M 215.625 177.5 C 214.765625 177.65625 213.90625 177.890625 213.125 178.125 C 210.15625 178.75 207.421875 180 205 181.875 C 200.78125 185.078125 196.40625 188.59375 192.5 192.5 C 149.21875 235.78125 149.21875 306.71875 192.5 350 L 290 447.5 C 333.28125 490.78125 404.21875 490.78125 447.5 447.5 C 490.78125 404.21875 490.78125 333.28125 447.5 290 L 374.375 217.5 C 369.53125 211.5625 361.796875 208.828125 354.296875 210.546875 C 346.875 212.265625 341.015625 218.125 339.296875 225.546875 C 337.578125 233.046875 340.3125 240.78125 346.25 245.625 L 419.375 318.75 C 447.34375 346.71875 447.34375 391.40625 419.375 419.375 C 391.40625 447.34375 346.71875 447.34375 318.75 419.375 L 220.625 321.25 C 192.65625 293.28125 192.65625 248.59375 220.625 220.625 C 223.046875 218.125 226.015625 216.40625 228.75 214.375 C 236.796875 209.453125 240.3125 199.53125 237.109375 190.625 C 233.984375 181.71875 225 176.25 215.625 177.5 Z "/>
</g>
</svg>
