<?xml version="1.0" encoding="UTF-8"?>
<svg xmlns="http://www.w3.org/2000/svg" xmlns:xlink="http://www.w3.org/1999/xlink" width="20pt" height="20pt" viewBox="0 0 20 20" version="1.1">
<g id="surface1">
<path style=" stroke:none;fill-rule:nonzero;fill:#000000;fill-opacity:1;" d="M 6.578125 1.972656 C 4.039063 1.972656 1.972656 4.039063 1.972656 6.578125 L 1.972656 13.15625 C 1.972656 15.695313 4.039063 17.761719 6.578125 17.761719 L 13.15625 17.761719 C 15.695313 17.761719 17.761719 15.695313 17.761719 13.15625 L 17.761719 6.578125 C 17.761719 4.039063 15.695313 1.972656 13.15625 1.972656 Z M 14.472656 4.605469 C 14.835938 4.605469 15.132813 4.902344 15.132813 5.261719 C 15.132813 5.625 14.835938 5.921875 14.472656 5.921875 C 14.113281 5.921875 13.816406 5.625 13.816406 5.261719 C 13.816406 4.902344 14.113281 4.605469 14.472656 4.605469 Z M 9.867188 5.921875 C 12.046875 5.921875 13.816406 7.691406 13.816406 9.867188 C 13.816406 12.046875 12.046875 13.816406 9.867188 13.816406 C 7.691406 13.816406 5.921875 12.046875 5.921875 9.867188 C 5.921875 7.691406 7.691406 5.921875 9.867188 5.921875 Z M 9.867188 7.238281 C 8.414063 7.238281 7.238281 8.414063 7.238281 9.867188 C 7.238281 11.324219 8.414063 12.5 9.867188 12.5 C 11.324219 12.5 12.5 11.324219 12.5 9.867188 C 12.5 8.414063 11.324219 7.238281 9.867188 7.238281 Z "/>
</g>
</svg>
