<?xml version="1.0" encoding="UTF-8"?>
<svg xmlns="http://www.w3.org/2000/svg" xmlns:xlink="http://www.w3.org/1999/xlink" width="20pt" height="20pt" viewBox="0 0 20 20" version="1.1">
<g id="surface1">
<path style=" stroke:none;fill-rule:nonzero;fill:#000000;fill-opacity:1;" d="M 7.058594 18.585938 C 7.34375 18.464844 7.539063 18.183594 7.539063 17.855469 L 7.539063 15.714844 C 7.539063 15.636719 7.546875 15.554688 7.554688 15.472656 C 7.550781 15.472656 7.546875 15.476563 7.539063 15.476563 C 7.539063 15.476563 6.347656 15.476563 6.109375 15.476563 C 5.515625 15.476563 5 15.238281 4.761719 14.761719 C 4.484375 14.246094 4.363281 13.371094 3.652344 12.898438 C 3.53125 12.816406 3.613281 12.699219 3.847656 12.699219 C 4.085938 12.738281 4.605469 13.054688 4.921875 13.492188 C 5.277344 13.929688 5.632813 14.285156 6.269531 14.285156 C 7.257813 14.285156 7.785156 14.234375 8.105469 14.066406 C 8.472656 13.515625 8.988281 13.09375 9.523438 13.09375 L 9.523438 13.085938 C 7.273438 13.011719 5.835938 12.265625 5.167969 11.109375 C 3.714844 11.128906 2.449219 11.273438 1.726563 11.390625 C 1.703125 11.261719 1.683594 11.132813 1.664063 11 C 2.378906 10.882813 3.585938 10.742188 4.976563 10.71875 C 4.933594 10.605469 4.894531 10.496094 4.859375 10.378906 C 3.46875 10.308594 2.265625 10.363281 1.613281 10.417969 C 1.605469 10.285156 1.59375 10.15625 1.59375 10.019531 C 2.246094 9.96875 3.417969 9.914063 4.773438 9.976563 C 4.742188 9.78125 4.722656 9.578125 4.722656 9.367188 C 4.722656 8.691406 4.960938 7.976563 5.398438 7.382813 C 5.199219 6.707031 4.921875 5.277344 5.476563 4.761719 C 6.546875 4.761719 7.300781 5.277344 7.660156 5.597656 C 8.332031 5.316406 9.085938 5.160156 9.921875 5.160156 C 10.753906 5.160156 11.507813 5.316406 12.144531 5.597656 C 12.5 5.277344 13.253906 4.761719 14.324219 4.761719 C 14.921875 5.316406 14.601563 6.746094 14.40625 7.382813 C 14.839844 7.976563 15.078125 8.652344 15.039063 9.367188 C 15.039063 9.558594 15.023438 9.742188 14.996094 9.921875 C 16.382813 9.855469 17.585938 9.910156 18.25 9.964844 C 18.25 10.097656 18.238281 10.230469 18.230469 10.359375 C 17.570313 10.304688 16.335938 10.25 14.914063 10.324219 C 14.878906 10.457031 14.835938 10.589844 14.785156 10.714844 C 16.191406 10.734375 17.429688 10.871094 18.179688 10.988281 C 18.160156 11.121094 18.140625 11.25 18.117188 11.378906 C 17.359375 11.257813 16.066406 11.117188 14.59375 11.109375 C 13.933594 12.25 12.523438 12.996094 10.316406 13.082031 L 10.316406 13.09375 C 11.351563 13.09375 12.300781 14.640625 12.300781 15.714844 L 12.300781 17.855469 C 12.300781 18.183594 12.5 18.464844 12.78125 18.585938 C 16.417969 17.382813 19.046875 13.953125 19.046875 9.921875 C 19.046875 4.886719 14.953125 0.792969 9.921875 0.792969 C 4.886719 0.792969 0.792969 4.886719 0.792969 9.921875 C 0.792969 13.953125 3.425781 17.382813 7.058594 18.585938 Z "/>
</g>
</svg>
