<?xml version="1.0" encoding="UTF-8"?>
<svg xmlns="http://www.w3.org/2000/svg" xmlns:xlink="http://www.w3.org/1999/xlink" width="20pt" height="20pt" viewBox="0 0 20 20" version="1.1">
<g id="surface1">
<path style=" stroke:none;fill-rule:nonzero;fill:#000000;fill-opacity:1;" d="M 17.761719 9.042969 C 17.761719 12.03125 16.3125 13.878906 13.949219 13.878906 C 12.726563 13.878906 11.851563 13.34375 11.597656 12.445313 L 11.414063 12.445313 C 11.027344 13.40625 10.289063 13.886719 9.199219 13.886719 C 7.222656 13.886719 5.914063 12.292969 5.914063 9.890625 C 5.914063 7.582031 7.175781 6.03125 9.054688 6.03125 C 10.078125 6.03125 10.886719 6.523438 11.265625 7.378906 L 11.445313 7.378906 L 11.445313 6.257813 L 13.625 6.257813 L 13.625 11.074219 C 13.625 11.746094 13.929688 12.144531 14.441406 12.144531 C 15.277344 12.144531 15.808594 11.035156 15.808594 9.273438 C 15.808594 5.839844 13.5625 3.640625 10.0625 3.640625 C 6.410156 3.640625 3.925781 6.199219 3.925781 9.925781 C 3.925781 13.699219 6.429688 16.058594 10.449219 16.058594 C 11.324219 16.058594 12.222656 15.945313 12.714844 15.792969 L 12.714844 17.480469 C 12.03125 17.660156 11.144531 17.761719 10.242188 17.761719 C 5.28125 17.761719 1.972656 14.605469 1.972656 9.878906 C 1.972656 5.203125 5.292969 1.972656 10.089844 1.972656 C 14.660156 1.972656 17.761719 4.835938 17.761719 9.042969 Z M 8.410156 9.953125 C 8.410156 11.1875 8.921875 11.925781 9.785156 11.925781 C 10.65625 11.925781 11.1875 11.175781 11.1875 9.953125 C 11.1875 8.734375 10.648438 7.980469 9.785156 7.980469 C 8.921875 7.980469 8.410156 8.722656 8.410156 9.953125 Z "/>
</g>
</svg>
