<?xml version="1.0" encoding="UTF-8"?>
<svg xmlns="http://www.w3.org/2000/svg" xmlns:xlink="http://www.w3.org/1999/xlink" width="512pt" height="512pt" viewBox="0 0 512 512" version="1.1">
<g id="surface1">
<path style=" stroke:none;fill-rule:nonzero;fill:#FFFFFF;fill-opacity:1;" d="M 364.125 32 C 341.875 32 320.875 40.75 305.25 56.5 L 247.375 114.25 C 226.625 135 219.25 164.125 225.25 191.125 L 257.25 159.25 C 259.5 151 263.625 143.25 270 136.875 L 327.875 79 C 337.625 69.375 350.5 64 364.125 64 C 377.875 64 390.75 69.375 401 79.625 C 410.75 89.375 416.125 102.25 416.125 116 C 416.125 129.625 410.75 142.625 401 152.25 L 343.25 210.125 C 337.125 216.25 329.375 220.375 321.25 222.625 L 288.875 255 C 294.75 256.375 300.75 257.125 307 257.125 C 329.25 257.125 350.125 248.5 365.875 232.75 L 423.625 175 C 456.125 142.375 456.25 89.5 423.125 56.5 C 407.375 40.75 386.5 32 364.125 32 Z M 303.75 159.875 C 299.625 160 295.75 161.75 292.75 164.75 L 164.75 292.75 C 158.5 298.875 158.5 309.125 164.75 315.375 C 171 321.625 181.125 321.625 187.5 315.375 L 315.5 187.375 C 320.25 182.75 321.625 175.75 319 169.625 C 316.5 163.5 310.375 159.625 303.75 159.875 Z M 173.25 222.875 C 151 222.875 130.125 231.5 114.375 247.25 L 56.5 305.125 C 24 337.625 24 390.5 57.125 423.625 C 73.375 439.875 94.75 448 116 448 C 137.375 448 158.75 439.875 175 423.625 L 232.75 365.875 C 253.625 345 261 315.875 255 289 L 223 320.875 C 220.75 329 216.625 336.75 210.25 343.125 L 152.375 401 C 132.375 421 99.625 421 79.125 400.375 C 69.375 390.625 64.125 377.75 64.125 364 C 64.125 350.375 69.375 337.5 79.125 327.75 L 137 269.875 C 143.25 263.625 151 259.375 159.25 257 L 191.375 225 C 185.5 223.75 179.5 222.875 173.25 222.875 Z "/>
</g>
</svg>
