<?xml version="1.0" encoding="UTF-8"?>
<svg xmlns="http://www.w3.org/2000/svg" xmlns:xlink="http://www.w3.org/1999/xlink" width="20pt" height="20pt" viewBox="0 0 20 20" version="1.1">
<g id="surface1">
<path style=" stroke:none;fill-rule:nonzero;fill:#000000;fill-opacity:1;" d="M 9.867188 2.632813 C 7.113281 2.632813 3.542969 3.320313 3.542969 3.320313 L 3.53125 3.332031 C 2.277344 3.535156 1.316406 4.609375 1.316406 5.921875 L 1.316406 13.816406 C 1.316406 15.109375 2.257813 16.210938 3.535156 16.410156 L 3.542969 16.417969 C 3.542969 16.417969 7.113281 17.105469 9.867188 17.105469 C 12.625 17.105469 16.199219 16.417969 16.199219 16.417969 L 16.199219 16.414063 C 17.476563 16.214844 18.417969 15.109375 18.421875 13.816406 L 18.421875 5.921875 C 18.417969 4.628906 17.476563 3.527344 16.199219 3.324219 L 16.199219 3.320313 C 16.199219 3.320313 12.625 2.632813 9.867188 2.632813 Z M 7.894531 6.839844 L 13.15625 9.867188 L 7.894531 12.894531 Z "/>
</g>
</svg>
