<?xml version="1.0" encoding="UTF-8"?>
<svg xmlns="http://www.w3.org/2000/svg" xmlns:xlink="http://www.w3.org/1999/xlink" width="20pt" height="20pt" viewBox="0 0 20 20" version="1.1">
<g id="surface1">
<path style=" stroke:none;fill-rule:nonzero;fill:#000000;fill-opacity:1;" d="M 18.421875 4.5625 C 17.792969 4.84375 17.117188 5.03125 16.40625 5.117188 C 17.132813 4.683594 17.6875 3.992188 17.949219 3.175781 C 17.269531 3.578125 16.519531 3.871094 15.71875 4.027344 C 15.082031 3.347656 14.167969 2.917969 13.15625 2.917969 C 11.21875 2.917969 9.648438 4.488281 9.648438 6.425781 C 9.648438 6.703125 9.679688 6.972656 9.738281 7.226563 C 6.824219 7.082031 4.238281 5.683594 2.503906 3.558594 C 2.203125 4.078125 2.03125 4.679688 2.03125 5.324219 C 2.03125 6.542969 2.648438 7.617188 3.59375 8.246094 C 3.015625 8.226563 2.476563 8.070313 2.003906 7.808594 C 2.003906 7.824219 2.003906 7.835938 2.003906 7.851563 C 2.003906 9.550781 3.210938 10.972656 4.820313 11.292969 C 4.523438 11.371094 4.210938 11.414063 3.894531 11.414063 C 3.667969 11.414063 3.445313 11.390625 3.234375 11.351563 C 3.679688 12.746094 4.976563 13.761719 6.511719 13.789063 C 5.308594 14.730469 3.796875 15.289063 2.152344 15.289063 C 1.871094 15.289063 1.589844 15.277344 1.316406 15.242188 C 2.867188 16.238281 4.714844 16.820313 6.695313 16.820313 C 13.148438 16.820313 16.679688 11.472656 16.679688 6.832031 C 16.679688 6.683594 16.675781 6.53125 16.667969 6.382813 C 17.355469 5.886719 17.949219 5.269531 18.421875 4.5625 Z "/>
</g>
</svg>
